P2
192 64
255
255 255 255 255 255 255 255 255 255 255 255 255 255 255 255 255 255 255 255 255 255 255 255 255 255 255 255 255 255 255 255 255 255 255 255 255 255 255 255 255 255 255 255 255 255 255 255 255 255 255 255 255 255 255 255 255 255 255 255 255 255 255 255 255 255 255 255 255 255 255 255 255 255 255 255 255 255 255 255 255 255 255 255 255 255 255 255 255 255 255 255 255 255 255 255 255 255 255 255 255 255 255 255 255 255 255 255 255 255 255 255 255 255 255 255 255 255 255 255 255 255 255 255 255 255 255 255 255 255 255 255 255 255 255 255 255 255 255 255 255 255 255 255 255 255 255 255 255 255 255 255 255 255 255 255 255 255 255 255 255 255 255 255 255 255 255 255 255 255 255 255 255 255 255 255 255 255 255 255 255 255 255 255 255 255 255 255 255 255 255 255 255 
255 255 255 255 255 255 255 255 255 255 255 255 255 255 255 255 255 255 255 255 255 255 255 255 255 255 255 255 255 255 255 255 255 255 255 255 255 255 255 255 255 255 255 255 255 255 255 255 255 255 255 255 255 255 255 255 255 255 255 255 255 255 255 255 255 255 255 255 255 255 255 255 255 255 255 255 255 255 255 255 255 255 255 255 255 255 255 255 255 255 255 255 255 255 255 255 255 255 255 255 255 255 255 255 255 255 255 255 255 255 255 255 255 255 255 255 255 255 255 255 255 255 255 255 255 255 255 255 255 255 255 255 255 255 255 255 255 255 255 255 255 255 255 255 255 255 255 255 255 255 255 255 255 255 255 255 255 255 255 255 255 255 255 255 255 255 255 255 255 255 255 255 255 255 255 255 255 255 255 255 255 255 255 255 255 255 255 255 255 255 255 255 
255 255 255 255 255 255 255 255 255 255 255 255 255 255 255 255 255 255 255 255 255 255 255 255 255 255 255 255 255 255 255 255 255 255 255 255 255 255 255 255 255 255 255 255 255 255 255 255 255 255 255 255 255 255 255 255 255 255 255 255 255 255 255 255 255 255 255 255 255 255 255 255 255 255 255 255 255 255 255 255 255 255 255 255 255 255 255 255 255 255 255 255 255 255 255 255 255 255 255 255 255 255 255 255 255 255 255 255 255 255 255 255 255 255 255 255 255 255 255 255 255 255 255 255 255 255 255 255 255 255 255 255 255 255 255 255 255 255 255 255 255 255 255 255 255 255 255 255 255 255 255 255 255 255 255 255 255 255 255 255 255 255 255 255 255 255 255 255 255 255 255 255 255 255 255 255 255 255 255 255 255 255 255 255 255 255 255 255 255 255 255 255 
255 255 255 255 255 255 255 255 255 255 255 255 255 255 255 255 255 255 255 255 255 255 255 255 255 255 255 255 255 255 255 255 255 255 255 255 255 255 255 255 255 255 255 255 255 255 255 255 255 255 255 255 255 255 255 255 255 255 255 255 255 255 255 255 255 255 255 255 255 255 255 255 255 255 255 255 255 255 255 255 255 255 255 255 255 255 255 255 255 255 255 255 255 255 255 255 255 255 255 255 255 255 255 255 255 255 255 255 255 255 255 255 255 255 255 255 255 255 255 255 255 255 255 255 255 255 255 255 255 255 255 255 255 255 255 255 255 255 255 255 255 255 255 255 255 255 255 255 255 255 255 255 255 255 255 255 255 255 255 255 255 255 255 255 255 255 255 255 255 255 255 255 255 255 255 255 255 255 255 255 255 255 255 255 255 255 255 255 255 255 255 255 
255 255 255 255 255 255 255 255 255 255 255 255 255 255 255 255 255 255 255 255 255 255 255 255 255 255 255 255 255 255 255 255 255 255 255 255 255 255 255 255 255 255 255 255 255 255 255 255 255 255 255 255 255 255 255 255 255 255 255 255 255 255 255 255 255 255 255 255 255 255 255 255 255 255 255 255 255 255 255 255 255 255 255 255 255 255 255 255 255 255 255 255 255 255 255 255 255 255 255 255 255 255 255 255 255 255 255 255 255 255 255 255 255 255 255 255 255 255 255 255 255 255 255 255 255 255 255 255 255 255 255 255 255 255 255 255 255 255 255 255 255 255 255 255 255 255 255 255 255 255 255 255 255 255 255 255 255 255 255 255 255 255 255 255 255 255 255 255 255 255 255 255 255 255 255 255 255 255 255 255 255 255 255 255 255 255 255 255 255 255 255 255 
255 255 255 255 255 255 255 255 255 255 255 255 255 255 255 255 255 255 255 255 255 255 255 255 255 255 255 255 255 255 255 255 255 255 255 255 255 255 255 255 255 255 255 255 255 255 255 255 255 255 255 255 255 255 255 255 255 255 255 255 255 255 255 255 255 255 255 255 255 255 255 255 255 255 255 255 255 255 255 255 255 255 255 255 255 255 255 255 255 255 255 255 255 255 255 255 255 255 255 255 255 255 255 255 255 255 255 255 255 255 255 255 255 255 255 255 255 255 255 255 255 255 255 255 255 255 255 255 255 255 255 255 255 255 255 255 255 255 255 255 255 255 255 255 255 255 255 255 255 255 255 255 255 255 255 255 255 255 255 255 255 255 255 255 255 255 255 255 255 255 255 255 255 255 255 255 255 255 255 255 255 255 255 255 255 255 255 255 255 255 255 255 
255 255 255 255 255 255 255 255 255 255 255 255 255 255 255 255 241 166 119 110 141 216 255 255 255 255 255 255 255 255 255 255 255 255 255 250 182 125 107 131 199 255 255 255 255 255 255 255 255 255 255 255 255 255 255 198 131 107 125 183 250 255 255 255 255 255 255 255 255 255 255 255 255 255 215 141 109 119 167 242 255 255 255 255 255 255 255 255 255 255 255 255 255 230 153 113 113 154 231 255 255 255 255 255 255 255 255 255 255 255 255 255 241 166 119 110 141 216 255 255 255 255 255 255 255 255 255 255 255 255 255 250 182 125 107 131 199 255 255 255 255 255 255 255 255 255 255 255 255 255 255 198 131 107 125 183 250 255 255 255 255 255 255 255 255 255 255 255 255 255 215 141 109 119 167 242 255 255 255 255 255 255 255 255 255 255 255 255 255 255 255 255 
255 255 255 255 255 255 255 255 255 255 255 255 255 255 255 154 18 0 0 0 0 1 88 239 255 255 255 255 255 255 255 255 255 255 188 36 0 0 0 0 0 59 218 255 255 255 255 255 255 255 255 255 255 217 58 0 0 0 0 0 37 190 255 255 255 255 255 255 255 255 255 255 238 87 1 0 0 0 0 19 157 255 255 255 255 255 255 255 255 255 255 251 119 7 0 0 0 0 7 121 251 255 255 255 255 255 255 255 255 255 255 154 18 0 0 0 0 1 88 239 255 255 255 255 255 255 255 255 255 255 188 36 0 0 0 0 0 59 218 255 255 255 255 255 255 255 255 255 255 217 58 0 0 0 0 0 37 190 255 255 255 255 255 255 255 255 255 255 238 87 1 0 0 0 0 19 157 255 255 255 255 255 255 255 255 255 255 255 255 255 255 255 
255 255 255 255 255 255 255 255 255 255 255 255 255 255 126 0 0 0 0 0 0 0 0 42 239 255 255 255 255 255 255 255 255 173 4 0 0 0 0 0 0 0 17 213 255 255 255 255 255 255 255 255 211 17 0 0 0 0 0 0 0 4 175 255 255 255 255 255 255 255 255 238 41 0 0 0 0 0 0 0 0 128 255 255 255 255 255 255 255 255 252 78 0 0 0 0 0 0 0 0 80 253 255 255 255 255 255 255 255 255 126 0 0 0 0 0 0 0 0 42 239 255 255 255 255 255 255 255 255 173 4 0 0 0 0 0 0 0 17 213 255 255 255 255 255 255 255 255 211 17 0 0 0 0 0 0 0 4 175 255 255 255 255 255 255 255 255 238 41 0 0 0 0 0 0 0 0 128 255 255 255 255 255 255 255 255 255 255 255 255 255 255 
255 255 255 255 255 255 255 255 255 255 255 255 255 189 1 0 0 0 0 0 0 0 0 0 89 255 255 255 255 255 255 255 229 12 0 0 0 0 0 0 0 0 0 42 251 255 255 255 255 255 255 251 40 0 0 0 0 0 0 0 0 0 13 230 255 255 255 255 255 255 255 87 0 0 0 0 0 0 0 0 0 1 191 255 255 255 255 255 255 255 139 0 0 0 0 0 0 0 0 0 0 141 255 255 255 255 255 255 255 189 1 0 0 0 0 0 0 0 0 0 89 255 255 255 255 255 255 255 229 12 0 0 0 0 0 0 0 0 0 42 251 255 255 255 255 255 255 251 40 0 0 0 0 0 0 0 0 0 13 230 255 255 255 255 255 255 255 87 0 0 0 0 0 0 0 0 0 1 191 255 255 255 255 255 255 255 255 255 255 255 255 255 
255 255 255 255 255 255 255 255 255 255 255 255 255 64 0 0 0 0 0 0 0 0 0 0 1 217 255 255 255 255 255 255 115 0 0 0 0 0 0 0 0 0 0 0 167 255 255 255 255 255 255 165 0 0 0 0 0 0 0 0 0 0 0 117 255 255 255 255 255 255 215 1 0 0 0 0 0 0 0 0 0 0 66 255 255 255 255 255 255 250 18 0 0 0 0 0 0 0 0 0 0 20 250 255 255 255 255 255 255 64 0 0 0 0 0 0 0 0 0 0 1 217 255 255 255 255 255 255 115 0 0 0 0 0 0 0 0 0 0 0 167 255 255 255 255 255 255 165 0 0 0 0 0 0 0 0 0 0 0 117 255 255 255 255 255 255 215 1 0 0 0 0 0 0 0 0 0 0 66 255 255 255 255 255 255 255 255 255 255 255 255 255 
255 255 255 255 255 255 255 255 255 255 255 255 240 3 0 0 0 0 0 0 0 0 0 0 0 142 255 255 255 255 255 255 39 0 0 0 0 0 0 0 0 0 0 0 92 255 255 255 255 255 255 90 0 0 0 0 0 0 0 0 0 0 0 41 255 255 255 255 255 255 141 0 0 0 0 0 0 0 0 0 0 0 3 242 255 255 255 255 255 192 0 0 0 0 0 0 0 0 0 0 0 0 194 255 255 255 255 255 240 3 0 0 0 0 0 0 0 0 0 0 0 142 255 255 255 255 255 255 39 0 0 0 0 0 0 0 0 0 0 0 92 255 255 255 255 255 255 90 0 0 0 0 0 0 0 0 0 0 0 41 255 255 255 255 255 255 141 0 0 0 0 0 0 0 0 0 0 0 3 242 255 255 255 255 255 255 255 255 255 255 255 255 
255 255 255 255 255 255 255 255 255 255 255 255 212 0 0 0 0 0 0 0 0 0 0 0 0 110 255 255 255 255 255 255 8 0 0 0 0 0 0 0 0 0 0 0 60 255 255 255 255 255 255 59 0 0 0 0 0 0 0 0 0 0 0 9 255 255 255 255 255 255 110 0 0 0 0 0 0 0 0 0 0 0 0 213 255 255 255 255 255 162 0 0 0 0 0 0 0 0 0 0 0 0 162 255 255 255 255 255 212 0 0 0 0 0 0 0 0 0 0 0 0 110 255 255 255 255 255 255 8 0 0 0 0 0 0 0 0 0 0 0 60 255 255 255 255 255 255 59 0 0 0 0 0 0 0 0 0 0 0 9 255 255 255 255 255 255 110 0 0 0 0 0 0 0 0 0 0 0 0 213 255 255 255 255 255 255 255 255 255 255 255 255 
255 255 255 255 255 255 255 255 255 255 255 255 222 0 0 0 0 0 0 0 0 0 0 0 0 121 255 255 255 255 255 255 17 0 0 0 0 0 0 0 0 0 0 0 70 255 255 255 255 255 255 68 0 0 0 0 0 0 0 0 0 0 0 19 255 255 255 255 255 255 119 0 0 0 0 0 0 0 0 0 0 0 0 224 255 255 255 255 255 171 0 0 0 0 0 0 0 0 0 0 0 0 173 255 255 255 255 255 222 0 0 0 0 0 0 0 0 0 0 0 0 121 255 255 255 255 255 255 17 0 0 0 0 0 0 0 0 0 0 0 70 255 255 255 255 255 255 68 0 0 0 0 0 0 0 0 0 0 0 19 255 255 255 255 255 255 119 0 0 0 0 0 0 0 0 0 0 0 0 224 255 255 255 255 255 255 255 255 255 255 255 255 
255 255 255 255 255 255 255 255 255 255 255 255 251 18 0 0 0 0 0 0 0 0 0 0 0 169 255 255 255 255 255 255 65 0 0 0 0 0 0 0 0 0 0 0 118 255 255 255 255 255 255 116 0 0 0 0 0 0 0 0 0 0 0 67 255 255 255 255 255 255 167 0 0 0 0 0 0 0 0 0 0 0 20 252 255 255 255 255 255 218 0 0 0 0 0 0 0 0 0 0 0 0 220 255 255 255 255 255 251 18 0 0 0 0 0 0 0 0 0 0 0 169 255 255 255 255 255 255 65 0 0 0 0 0 0 0 0 0 0 0 118 255 255 255 255 255 255 116 0 0 0 0 0 0 0 0 0 0 0 67 255 255 255 255 255 255 167 0 0 0 0 0 0 0 0 0 0 0 20 252 255 255 255 255 255 255 255 255 255 255 255 255 
255 255 255 255 255 255 255 255 255 255 255 255 255 109 0 0 0 0 0 0 0 0 0 0 21 243 255 255 255 255 255 255 160 0 0 0 0 0 0 0 0 0 0 2 210 255 255 255 255 255 255 209 2 0 0 0 0 0 0 0 0 0 0 162 255 255 255 255 255 255 242 19 0 0 0 0 0 0 0 0 0 0 111 255 255 255 255 255 255 255 58 0 0 0 0 0 0 0 0 0 0 60 255 255 255 255 255 255 255 109 0 0 0 0 0 0 0 0 0 0 21 243 255 255 255 255 255 255 160 0 0 0 0 0 0 0 0 0 0 2 210 255 255 255 255 255 255 209 2 0 0 0 0 0 0 0 0 0 0 162 255 255 255 255 255 255 242 19 0 0 0 0 0 0 0 0 0 0 111 255 255 255 255 255 255 255 255 255 255 255 255 255 
255 255 255 255 255 255 255 255 255 255 255 255 255 233 26 0 0 0 0 0 0 0 0 0 159 255 255 255 255 255 255 255 252 58 0 0 0 0 0 0 0 0 0 108 255 255 255 255 255 255 255 255 105 0 0 0 0 0 0 0 0 0 60 253 255 255 255 255 255 255 255 156 0 0 0 0 0 0 0 0 0 27 235 255 255 255 255 255 255 255 201 7 0 0 0 0 0 0 0 0 7 204 255 255 255 255 255 255 255 233 26 0 0 0 0 0 0 0 0 0 159 255 255 255 255 255 255 255 252 58 0 0 0 0 0 0 0 0 0 108 255 255 255 255 255 255 255 255 105 0 0 0 0 0 0 0 0 0 60 253 255 255 255 255 255 255 255 156 0 0 0 0 0 0 0 0 0 27 235 255 255 255 255 255 255 255 255 255 255 255 255 255 
255 255 255 255 255 255 255 255 255 255 255 255 255 255 206 26 0 0 0 0 0 0 1 131 255 255 255 255 255 255 255 255 255 232 51 0 0 0 0 0 0 0 86 250 255 255 255 255 255 255 255 255 249 84 0 0 0 0 0 0 0 52 233 255 255 255 255 255 255 255 255 255 129 1 0 0 0 0 0 0 27 207 255 255 255 255 255 255 255 255 255 172 9 0 0 0 0 0 0 10 174 255 255 255 255 255 255 255 255 255 206 26 0 0 0 0 0 0 1 131 255 255 255 255 255 255 255 255 255 232 51 0 0 0 0 0 0 0 86 250 255 255 255 255 255 255 255 255 249 84 0 0 0 0 0 0 0 52 233 255 255 255 255 255 255 255 255 255 129 1 0 0 0 0 0 0 27 207 255 255 255 255 255 255 255 255 255 255 255 255 255 255 
255 255 255 255 255 255 255 255 255 255 255 255 255 255 255 234 110 19 0 0 3 67 193 255 255 255 255 255 255 255 255 255 255 255 246 135 32 0 0 0 48 164 254 255 255 255 255 255 255 255 255 255 255 254 163 48 0 0 0 32 137 247 255 255 255 255 255 255 255 255 255 255 255 191 66 3 0 0 19 111 235 255 255 255 255 255 255 255 255 255 255 255 215 87 9 0 0 10 88 217 255 255 255 255 255 255 255 255 255 255 255 234 110 19 0 0 3 67 193 255 255 255 255 255 255 255 255 255 255 255 246 135 32 0 0 0 48 164 254 255 255 255 255 255 255 255 255 255 255 254 163 48 0 0 0 32 137 247 255 255 255 255 255 255 255 255 255 255 255 191 66 3 0 0 19 111 235 255 255 255 255 255 255 255 255 255 255 255 255 255 255 255 
255 255 255 255 255 255 255 255 255 255 255 255 255 255 255 255 255 252 223 212 242 255 255 255 255 255 255 255 255 255 255 255 255 255 255 255 255 228 210 235 255 255 255 255 255 255 255 255 255 255 255 255 255 255 255 255 235 210 229 255 255 255 255 255 255 255 255 255 255 255 255 255 255 255 255 242 212 223 252 255 255 255 255 255 255 255 255 255 255 255 255 255 255 255 248 216 216 248 255 255 255 255 255 255 255 255 255 255 255 255 255 255 255 252 223 212 242 255 255 255 255 255 255 255 255 255 255 255 255 255 255 255 255 228 210 235 255 255 255 255 255 255 255 255 255 255 255 255 255 255 255 255 235 210 229 255 255 255 255 255 255 255 255 255 255 255 255 255 255 255 255 242 212 223 252 255 255 255 255 255 255 255 255 255 255 255 255 255 255 255 255 255 
255 255 255 255 255 255 255 255 255 255 255 255 255 255 255 255 255 255 255 255 255 255 255 255 255 255 255 255 255 255 255 255 255 255 255 255 255 255 255 255 255 255 255 255 255 255 255 255 255 255 255 255 255 255 255 255 255 255 255 255 255 255 255 255 255 255 255 255 255 255 255 255 255 255 255 255 255 255 255 255 255 255 255 255 255 255 255 255 255 255 255 255 255 255 255 255 255 255 255 255 255 255 255 255 255 255 255 255 255 255 255 255 255 255 255 255 255 255 255 255 255 255 255 255 255 255 255 255 255 255 255 255 255 255 255 255 255 255 255 255 255 255 255 255 255 255 255 255 255 255 255 255 255 255 255 255 255 255 255 255 255 255 255 255 255 255 255 255 255 255 255 255 255 255 255 255 255 255 255 255 255 255 255 255 255 255 255 255 255 255 255 255 
255 255 255 255 255 255 255 255 255 255 255 255 255 255 255 255 255 255 255 255 255 255 255 255 255 255 255 255 255 255 255 255 255 255 255 255 255 255 255 255 255 255 255 255 255 255 255 255 255 255 255 255 255 255 255 255 255 255 255 255 255 255 255 255 255 255 255 255 255 255 255 255 255 255 255 255 255 255 255 255 255 255 255 255 255 255 255 255 255 255 255 255 255 255 255 255 255 255 255 255 255 255 255 255 255 255 255 255 255 255 255 255 255 255 255 255 255 255 255 255 255 255 255 255 255 255 255 255 255 255 255 255 255 255 255 255 255 255 255 255 255 255 255 255 255 255 255 255 255 255 255 255 255 255 255 255 255 255 255 255 255 255 255 255 255 255 255 255 255 255 255 255 255 255 255 255 255 255 255 255 255 255 255 255 255 255 255 255 255 255 255 255 
255 255 255 255 255 255 255 255 255 255 255 255 255 255 255 255 255 255 255 255 255 255 255 255 255 255 255 255 255 255 255 255 255 255 255 255 255 255 255 255 255 255 255 255 255 255 255 255 255 255 255 255 255 255 255 255 255 255 255 255 255 255 255 255 255 255 255 255 255 255 255 255 255 255 255 255 255 255 255 255 255 255 255 255 255 255 255 255 255 255 255 255 255 255 255 255 255 255 255 255 255 255 255 255 255 255 255 255 255 255 255 255 255 255 255 255 255 255 255 255 255 255 255 255 255 255 255 255 255 255 255 255 255 255 255 255 255 255 255 255 255 255 255 255 255 255 255 255 255 255 255 255 255 255 255 255 255 255 255 255 255 255 255 255 255 255 255 255 255 255 255 255 255 255 255 255 255 255 255 255 255 255 255 255 255 255 255 255 255 255 255 255 
255 255 255 255 255 255 255 255 255 255 255 255 255 255 255 255 255 255 255 255 255 255 255 255 255 255 255 255 255 255 255 255 255 255 255 255 255 255 255 255 255 255 255 255 255 255 255 255 255 255 255 255 255 255 255 255 255 255 255 255 255 255 255 255 255 255 255 255 255 255 255 255 255 255 255 255 255 255 255 255 255 255 255 255 255 255 255 255 255 255 255 255 255 255 255 255 255 255 255 255 255 255 255 255 255 255 255 255 255 255 255 255 255 255 255 255 255 255 255 255 255 255 255 255 255 255 255 255 255 255 255 255 255 255 255 255 255 255 255 255 255 255 255 255 255 255 255 255 255 255 255 255 255 255 255 255 255 255 255 255 255 255 255 255 255 255 255 255 255 255 255 255 255 255 255 255 255 255 255 255 255 255 255 255 255 255 255 255 255 255 255 255 
255 255 255 255 255 255 255 255 255 255 255 255 255 255 255 255 255 255 255 255 255 255 255 255 255 255 255 255 255 255 255 255 255 255 255 255 255 255 255 255 255 255 255 255 255 255 255 255 255 255 255 255 255 255 255 255 255 255 255 255 255 255 255 255 255 255 255 255 255 255 255 255 255 255 255 255 255 255 255 255 255 255 255 255 255 255 255 255 255 255 255 255 255 255 255 255 255 255 255 255 255 255 255 255 255 255 255 255 255 255 255 255 255 255 255 255 255 255 255 255 255 255 255 255 255 255 255 255 255 255 255 255 255 255 255 255 255 255 255 255 255 255 255 255 255 255 255 255 255 255 255 255 255 255 255 255 255 255 255 255 255 255 255 255 255 255 255 255 255 255 255 255 255 255 255 255 255 255 255 255 255 255 255 255 255 255 255 255 255 255 255 255 
255 255 255 255 255 255 255 255 255 255 255 255 255 255 255 255 255 218 171 161 193 250 255 255 255 255 255 255 255 255 255 255 255 255 255 255 232 176 159 183 243 255 255 255 255 255 255 255 255 255 255 255 255 255 255 242 183 159 177 232 255 255 255 255 255 255 255 255 255 255 255 255 255 255 250 192 161 171 219 255 255 255 255 255 255 255 255 255 255 255 255 255 255 254 205 164 164 206 254 255 255 255 255 255 255 255 255 255 255 255 255 255 255 218 171 161 193 250 255 255 255 255 255 255 255 255 255 255 255 255 255 255 232 176 159 183 243 255 255 255 255 255 255 255 255 255 255 255 255 255 255 242 183 159 177 232 255 255 255 255 255 255 255 255 255 255 255 255 255 255 250 192 161 171 219 255 255 255 255 255 255 255 255 255 255 255 255 255 255 255 255 255 
255 255 255 255 255 255 255 255 255 255 255 255 255 255 255 200 56 0 0 0 0 19 140 253 255 255 255 255 255 255 255 255 255 255 223 82 2 0 0 0 8 111 242 255 255 255 255 255 255 255 255 255 255 242 109 7 0 0 0 2 83 225 255 255 255 255 255 255 255 255 255 255 252 139 18 0 0 0 0 58 202 255 255 255 255 255 255 255 255 255 255 255 171 34 0 0 0 0 36 173 255 255 255 255 255 255 255 255 255 255 255 200 56 0 0 0 0 19 140 253 255 255 255 255 255 255 255 255 255 255 223 82 2 0 0 0 8 111 242 255 255 255 255 255 255 255 255 255 255 242 109 7 0 0 0 2 83 225 255 255 255 255 255 255 255 255 255 255 252 139 18 0 0 0 0 58 202 255 255 255 255 255 255 255 255 255 255 255 255 255 255 255 
255 255 255 255 255 255 255 255 255 255 255 255 255 255 170 6 0 0 0 0 0 0 0 80 251 255 255 255 255 255 255 255 255 207 20 0 0 0 0 0 0 0 45 235 255 255 255 255 255 255 255 255 234 44 0 0 0 0 0 0 0 21 208 255 255 255 255 255 255 255 255 251 78 0 0 0 0 0 0 0 7 172 255 255 255 255 255 255 255 255 255 126 0 0 0 0 0 0 0 0 128 255 255 255 255 255 255 255 255 255 170 6 0 0 0 0 0 0 0 80 251 255 255 255 255 255 255 255 255 207 20 0 0 0 0 0 0 0 45 235 255 255 255 255 255 255 255 255 234 44 0 0 0 0 0 0 0 21 208 255 255 255 255 255 255 255 255 251 78 0 0 0 0 0 0 0 7 172 255 255 255 255 255 255 255 255 255 255 255 255 255 255 
255 255 255 255 255 255 255 255 255 255 255 255 255 214 8 0 0 0 0 0 0 0 0 0 122 255 255 255 255 255 255 255 243 30 0 0 0 0 0 0 0 0 0 72 255 255 255 255 255 255 255 255 69 0 0 0 0 0 0 0 0 0 32 244 255 255 255 255 255 255 255 119 0 0 0 0 0 0 0 0 0 9 216 255 255 255 255 255 255 255 171 0 0 0 0 0 0 0 0 0 0 174 255 255 255 255 255 255 255 214 8 0 0 0 0 0 0 0 0 0 122 255 255 255 255 255 255 255 243 30 0 0 0 0 0 0 0 0 0 72 255 255 255 255 255 255 255 255 69 0 0 0 0 0 0 0 0 0 32 244 255 255 255 255 255 255 255 119 0 0 0 0 0 0 0 0 0 9 216 255 255 255 255 255 255 255 255 255 255 255 255 255 
255 255 255 255 255 255 255 255 255 255 255 255 255 84 0 0 0 0 0 0 0 0 0 0 8 231 255 255 255 255 255 255 135 0 0 0 0 0 0 0 0 0 0 0 188 255 255 255 255 255 255 186 0 0 0 0 0 0 0 0 0 0 0 137 255 255 255 255 255 255 230 7 0 0 0 0 0 0 0 0 0 0 87 255 255 255 255 255 255 254 35 0 0 0 0 0 0 0 0 0 0 37 254 255 255 255 255 255 255 84 0 0 0 0 0 0 0 0 0 0 8 231 255 255 255 255 255 255 135 0 0 0 0 0 0 0 0 0 0 0 188 255 255 255 255 255 255 186 0 0 0 0 0 0 0 0 0 0 0 137 255 255 255 255 255 255 230 7 0 0 0 0 0 0 0 0 0 0 87 255 255 255 255 255 255 255 255 255 255 255 255 255 
255 255 255 255 255 255 255 255 255 255 255 255 246 9 0 0 0 0 0 0 0 0 0 0 0 154 255 255 255 255 255 255 50 0 0 0 0 0 0 0 0 0 0 0 103 255 255 255 255 255 255 101 0 0 0 0 0 0 0 0 0 0 0 52 255 255 255 255 255 255 152 0 0 0 0 0 0 0 0 0 0 0 10 247 255 255 255 255 255 204 0 0 0 0 0 0 0 0 0 0 0 0 206 255 255 255 255 255 246 9 0 0 0 0 0 0 0 0 0 0 0 154 255 255 255 255 255 255 50 0 0 0 0 0 0 0 0 0 0 0 103 255 255 255 255 255 255 101 0 0 0 0 0 0 0 0 0 0 0 52 255 255 255 255 255 255 152 0 0 0 0 0 0 0 0 0 0 0 10 247 255 255 255 255 255 255 255 255 255 255 255 255 
255 255 255 255 255 255 255 255 255 255 255 255 216 0 0 0 0 0 0 0 0 0 0 0 0 115 255 255 255 255 255 255 12 0 0 0 0 0 0 0 0 0 0 0 64 255 255 255 255 255 255 62 0 0 0 0 0 0 0 0 0 0 0 12 255 255 255 255 255 255 113 0 0 0 0 0 0 0 0 0 0 0 0 217 255 255 255 255 255 165 0 0 0 0 0 0 0 0 0 0 0 0 166 255 255 255 255 255 216 0 0 0 0 0 0 0 0 0 0 0 0 115 255 255 255 255 255 255 12 0 0 0 0 0 0 0 0 0 0 0 64 255 255 255 255 255 255 62 0 0 0 0 0 0 0 0 0 0 0 12 255 255 255 255 255 255 113 0 0 0 0 0 0 0 0 0 0 0 0 217 255 255 255 255 255 255 255 255 255 255 255 255 
255 255 255 255 255 255 255 255 255 255 255 255 217 0 0 0 0 0 0 0 0 0 0 0 0 116 255 255 255 255 255 255 12 0 0 0 0 0 0 0 0 0 0 0 65 255 255 255 255 255 255 63 0 0 0 0 0 0 0 0 0 0 0 14 255 255 255 255 255 255 114 0 0 0 0 0 0 0 0 0 0 0 0 218 255 255 255 255 255 166 0 0 0 0 0 0 0 0 0 0 0 0 167 255 255 255 255 255 217 0 0 0 0 0 0 0 0 0 0 0 0 116 255 255 255 255 255 255 12 0 0 0 0 0 0 0 0 0 0 0 65 255 255 255 255 255 255 63 0 0 0 0 0 0 0 0 0 0 0 14 255 255 255 255 255 255 114 0 0 0 0 0 0 0 0 0 0 0 0 218 255 255 255 255 255 255 255 255 255 255 255 255 
255 255 255 255 255 255 255 255 255 255 255 255 246 9 0 0 0 0 0 0 0 0 0 0 0 155 255 255 255 255 255 255 51 0 0 0 0 0 0 0 0 0 0 0 104 255 255 255 255 255 255 102 0 0 0 0 0 0 0 0 0 0 0 53 255 255 255 255 255 255 153 0 0 0 0 0 0 0 0 0 0 0 10 247 255 255 255 255 255 205 0 0 0 0 0 0 0 0 0 0 0 0 207 255 255 255 255 255 246 9 0 0 0 0 0 0 0 0 0 0 0 155 255 255 255 255 255 255 51 0 0 0 0 0 0 0 0 0 0 0 104 255 255 255 255 255 255 102 0 0 0 0 0 0 0 0 0 0 0 53 255 255 255 255 255 255 153 0 0 0 0 0 0 0 0 0 0 0 10 247 255 255 255 255 255 255 255 255 255 255 255 255 
255 255 255 255 255 255 255 255 255 255 255 255 255 86 0 0 0 0 0 0 0 0 0 0 8 232 255 255 255 255 255 255 137 0 0 0 0 0 0 0 0 0 0 0 190 255 255 255 255 255 255 187 0 0 0 0 0 0 0 0 0 0 0 139 255 255 255 255 255 255 231 8 0 0 0 0 0 0 0 0 0 0 88 255 255 255 255 255 255 254 36 0 0 0 0 0 0 0 0 0 0 38 254 255 255 255 255 255 255 86 0 0 0 0 0 0 0 0 0 0 8 232 255 255 255 255 255 255 137 0 0 0 0 0 0 0 0 0 0 0 190 255 255 255 255 255 255 187 0 0 0 0 0 0 0 0 0 0 0 139 255 255 255 255 255 255 231 8 0 0 0 0 0 0 0 0 0 0 88 255 255 255 255 255 255 255 255 255 255 255 255 255 
255 255 255 255 255 255 255 255 255 255 255 255 255 215 9 0 0 0 0 0 0 0 0 0 124 255 255 255 255 255 255 255 244 31 0 0 0 0 0 0 0 0 0 73 255 255 255 255 255 255 255 255 70 0 0 0 0 0 0 0 0 0 33 245 255 255 255 255 255 255 255 121 0 0 0 0 0 0 0 0 0 10 217 255 255 255 255 255 255 255 173 0 0 0 0 0 0 0 0 0 0 175 255 255 255 255 255 255 255 215 9 0 0 0 0 0 0 0 0 0 124 255 255 255 255 255 255 255 244 31 0 0 0 0 0 0 0 0 0 73 255 255 255 255 255 255 255 255 70 0 0 0 0 0 0 0 0 0 33 245 255 255 255 255 255 255 255 121 0 0 0 0 0 0 0 0 0 10 217 255 255 255 255 255 255 255 255 255 255 255 255 255 
255 255 255 255 255 255 255 255 255 255 255 255 255 255 172 7 0 0 0 0 0 0 0 82 252 255 255 255 255 255 255 255 255 208 22 0 0 0 0 0 0 0 46 236 255 255 255 255 255 255 255 255 235 45 0 0 0 0 0 0 0 23 209 255 255 255 255 255 255 255 255 251 80 0 0 0 0 0 0 0 7 174 255 255 255 255 255 255 255 255 255 128 0 0 0 0 0 0 0 0 130 255 255 255 255 255 255 255 255 255 172 7 0 0 0 0 0 0 0 82 252 255 255 255 255 255 255 255 255 208 22 0 0 0 0 0 0 0 46 236 255 255 255 255 255 255 255 255 235 45 0 0 0 0 0 0 0 23 209 255 255 255 255 255 255 255 255 251 80 0 0 0 0 0 0 0 7 174 255 255 255 255 255 255 255 255 255 255 255 255 255 255 
255 255 255 255 255 255 255 255 255 255 255 255 255 255 255 202 59 0 0 0 0 20 143 253 255 255 255 255 255 255 255 255 255 255 225 85 3 0 0 0 9 114 243 255 255 255 255 255 255 255 255 255 255 243 112 8 0 0 0 3 86 226 255 255 255 255 255 255 255 255 255 255 253 141 20 0 0 0 0 60 204 255 255 255 255 255 255 255 255 255 255 255 174 37 0 0 0 0 38 175 255 255 255 255 255 255 255 255 255 255 255 202 59 0 0 0 0 20 143 253 255 255 255 255 255 255 255 255 255 255 225 85 3 0 0 0 9 114 243 255 255 255 255 255 255 255 255 255 255 243 112 8 0 0 0 3 86 226 255 255 255 255 255 255 255 255 255 255 253 141 20 0 0 0 0 60 204 255 255 255 255 255 255 255 255 255 255 255 255 255 255 255 
255 255 255 255 255 255 255 255 255 255 255 255 255 255 255 255 255 220 172 161 195 251 255 255 255 255 255 255 255 255 255 255 255 255 255 255 233 178 160 185 244 255 255 255 255 255 255 255 255 255 255 255 255 255 255 244 184 160 178 234 255 255 255 255 255 255 255 255 255 255 255 255 255 255 250 194 161 172 220 255 255 255 255 255 255 255 255 255 255 255 255 255 255 254 207 165 166 207 255 255 255 255 255 255 255 255 255 255 255 255 255 255 255 220 172 161 195 251 255 255 255 255 255 255 255 255 255 255 255 255 255 255 233 178 160 185 244 255 255 255 255 255 255 255 255 255 255 255 255 255 255 244 184 160 178 234 255 255 255 255 255 255 255 255 255 255 255 255 255 255 250 194 161 172 220 255 255 255 255 255 255 255 255 255 255 255 255 255 255 255 255 255 
255 255 255 255 255 255 255 255 255 255 255 255 255 255 255 255 255 255 255 255 255 255 255 255 255 255 255 255 255 255 255 255 255 255 255 255 255 255 255 255 255 255 255 255 255 255 255 255 255 255 255 255 255 255 255 255 255 255 255 255 255 255 255 255 255 255 255 255 255 255 255 255 255 255 255 255 255 255 255 255 255 255 255 255 255 255 255 255 255 255 255 255 255 255 255 255 255 255 255 255 255 255 255 255 255 255 255 255 255 255 255 255 255 255 255 255 255 255 255 255 255 255 255 255 255 255 255 255 255 255 255 255 255 255 255 255 255 255 255 255 255 255 255 255 255 255 255 255 255 255 255 255 255 255 255 255 255 255 255 255 255 255 255 255 255 255 255 255 255 255 255 255 255 255 255 255 255 255 255 255 255 255 255 255 255 255 255 255 255 255 255 255 
255 255 255 255 255 255 255 255 255 255 255 255 255 255 255 255 255 255 255 255 255 255 255 255 255 255 255 255 255 255 255 255 255 255 255 255 255 255 255 255 255 255 255 255 255 255 255 255 255 255 255 255 255 255 255 255 255 255 255 255 255 255 255 255 255 255 255 255 255 255 255 255 255 255 255 255 255 255 255 255 255 255 255 255 255 255 255 255 255 255 255 255 255 255 255 255 255 255 255 255 255 255 255 255 255 255 255 255 255 255 255 255 255 255 255 255 255 255 255 255 255 255 255 255 255 255 255 255 255 255 255 255 255 255 255 255 255 255 255 255 255 255 255 255 255 255 255 255 255 255 255 255 255 255 255 255 255 255 255 255 255 255 255 255 255 255 255 255 255 255 255 255 255 255 255 255 255 255 255 255 255 255 255 255 255 255 255 255 255 255 255 255 
255 255 255 255 255 255 255 255 255 255 255 255 255 255 255 255 255 255 255 255 255 255 255 255 255 255 255 255 255 255 255 255 255 255 255 255 255 255 255 255 255 255 255 255 255 255 255 255 255 255 255 255 255 255 255 255 255 255 255 255 255 255 255 255 255 255 255 255 255 255 255 255 255 255 255 255 255 255 255 255 255 255 255 255 255 255 255 255 255 255 255 255 255 255 255 255 255 255 255 255 255 255 255 255 255 255 255 255 255 255 255 255 255 255 255 255 255 255 255 255 255 255 255 255 255 255 255 255 255 255 255 255 255 255 255 255 255 255 255 255 255 255 255 255 255 255 255 255 255 255 255 255 255 255 255 255 255 255 255 255 255 255 255 255 255 255 255 255 255 255 255 255 255 255 255 255 255 255 255 255 255 255 255 255 255 255 255 255 255 255 255 255 
255 255 255 255 255 255 255 255 255 255 255 255 255 255 255 255 255 255 255 255 255 255 255 255 255 255 255 255 255 255 255 255 255 255 255 255 255 255 255 255 255 255 255 255 255 255 255 255 255 255 255 255 255 255 255 255 255 255 255 255 255 255 255 255 255 255 255 255 255 255 255 255 255 255 255 255 255 255 255 255 255 255 255 255 255 255 255 255 255 255 255 255 255 255 255 255 255 255 255 255 255 255 255 255 255 255 255 255 255 255 255 255 255 255 255 255 255 255 255 255 255 255 255 255 255 255 255 255 255 255 255 255 255 255 255 255 255 255 255 255 255 255 255 255 255 255 255 255 255 255 255 255 255 255 255 255 255 255 255 255 255 255 255 255 255 255 255 255 255 255 255 255 255 255 255 255 255 255 255 255 255 255 255 255 255 255 255 255 255 255 255 255 
255 255 255 255 255 255 255 255 255 255 255 255 255 255 255 255 255 255 255 255 255 255 255 255 255 255 255 255 255 255 255 255 255 255 255 255 255 255 255 255 255 255 255 255 255 255 255 255 255 255 255 255 255 255 255 255 255 255 255 255 255 255 255 255 255 255 255 255 255 255 255 255 255 255 255 255 255 255 255 255 255 255 255 255 255 255 255 255 255 255 255 255 255 255 255 255 255 255 255 255 255 255 255 255 255 255 255 255 255 255 255 255 255 255 255 255 255 255 255 255 255 255 255 255 255 255 255 255 255 255 255 255 255 255 255 255 255 255 255 255 255 255 255 255 255 255 255 255 255 255 255 255 255 255 255 255 255 255 255 255 255 255 255 255 255 255 255 255 255 255 255 255 255 255 255 255 255 255 255 255 255 255 255 255 255 255 255 255 255 255 255 255 
255 255 255 255 255 255 255 255 255 255 255 255 255 255 255 255 255 251 222 212 241 255 255 255 255 255 255 255 255 255 255 255 255 255 255 255 255 227 210 234 255 255 255 255 255 255 255 255 255 255 255 255 255 255 255 255 234 210 227 255 255 255 255 255 255 255 255 255 255 255 255 255 255 255 255 240 212 222 251 255 255 255 255 255 255 255 255 255 255 255 255 255 255 255 247 215 215 248 255 255 255 255 255 255 255 255 255 255 255 255 255 255 255 251 222 212 241 255 255 255 255 255 255 255 255 255 255 255 255 255 255 255 255 227 210 234 255 255 255 255 255 255 255 255 255 255 255 255 255 255 255 255 234 210 227 255 255 255 255 255 255 255 255 255 255 255 255 255 255 255 255 240 212 222 251 255 255 255 255 255 255 255 255 255 255 255 255 255 255 255 255 255 
255 255 255 255 255 255 255 255 255 255 255 255 255 255 255 232 107 18 0 0 3 65 190 255 255 255 255 255 255 255 255 255 255 255 246 133 30 0 0 0 46 162 254 255 255 255 255 255 255 255 255 255 255 254 160 45 0 0 0 31 134 246 255 255 255 255 255 255 255 255 255 255 255 189 64 3 0 0 18 109 233 255 255 255 255 255 255 255 255 255 255 255 213 84 9 0 0 9 86 215 255 255 255 255 255 255 255 255 255 255 255 232 107 18 0 0 3 65 190 255 255 255 255 255 255 255 255 255 255 255 246 133 30 0 0 0 46 162 254 255 255 255 255 255 255 255 255 255 255 254 160 45 0 0 0 31 134 246 255 255 255 255 255 255 255 255 255 255 255 189 64 3 0 0 18 109 233 255 255 255 255 255 255 255 255 255 255 255 255 255 255 255 
255 255 255 255 255 255 255 255 255 255 255 255 255 255 205 25 0 0 0 0 0 0 1 128 255 255 255 255 255 255 255 255 255 231 49 0 0 0 0 0 0 0 84 249 255 255 255 255 255 255 255 255 249 82 0 0 0 0 0 0 0 51 232 255 255 255 255 255 255 255 255 255 126 1 0 0 0 0 0 0 26 206 255 255 255 255 255 255 255 255 255 170 8 0 0 0 0 0 0 9 172 255 255 255 255 255 255 255 255 255 205 25 0 0 0 0 0 0 1 128 255 255 255 255 255 255 255 255 255 231 49 0 0 0 0 0 0 0 84 249 255 255 255 255 255 255 255 255 249 82 0 0 0 0 0 0 0 51 232 255 255 255 255 255 255 255 255 255 126 1 0 0 0 0 0 0 26 206 255 255 255 255 255 255 255 255 255 255 255 255 255 255 
255 255 255 255 255 255 255 255 255 255 255 255 255 232 25 0 0 0 0 0 0 0 0 0 157 255 255 255 255 255 255 255 252 56 0 0 0 0 0 0 0 0 0 107 255 255 255 255 255 255 255 255 104 0 0 0 0 0 0 0 0 0 58 252 255 255 255 255 255 255 255 154 0 0 0 0 0 0 0 0 0 26 234 255 255 255 255 255 255 255 200 6 0 0 0 0 0 0 0 0 7 202 255 255 255 255 255 255 255 232 25 0 0 0 0 0 0 0 0 0 157 255 255 255 255 255 255 255 252 56 0 0 0 0 0 0 0 0 0 107 255 255 255 255 255 255 255 255 104 0 0 0 0 0 0 0 0 0 58 252 255 255 255 255 255 255 255 154 0 0 0 0 0 0 0 0 0 26 234 255 255 255 255 255 255 255 255 255 255 255 255 255 
255 255 255 255 255 255 255 255 255 255 255 255 255 107 0 0 0 0 0 0 0 0 0 0 20 242 255 255 255 255 255 255 158 0 0 0 0 0 0 0 0 0 0 2 209 255 255 255 255 255 255 208 2 0 0 0 0 0 0 0 0 0 0 160 255 255 255 255 255 255 241 18 0 0 0 0 0 0 0 0 0 0 110 255 255 255 255 255 255 255 57 0 0 0 0 0 0 0 0 0 0 59 255 255 255 255 255 255 255 107 0 0 0 0 0 0 0 0 0 0 20 242 255 255 255 255 255 255 158 0 0 0 0 0 0 0 0 0 0 2 209 255 255 255 255 255 255 208 2 0 0 0 0 0 0 0 0 0 0 160 255 255 255 255 255 255 241 18 0 0 0 0 0 0 0 0 0 0 110 255 255 255 255 255 255 255 255 255 255 255 255 255 
255 255 255 255 255 255 255 255 255 255 255 255 251 18 0 0 0 0 0 0 0 0 0 0 0 168 255 255 255 255 255 255 64 0 0 0 0 0 0 0 0 0 0 0 117 255 255 255 255 255 255 115 0 0 0 0 0 0 0 0 0 0 0 66 255 255 255 255 255 255 166 0 0 0 0 0 0 0 0 0 0 0 19 251 255 255 255 255 255 218 0 0 0 0 0 0 0 0 0 0 0 0 220 255 255 255 255 255 251 18 0 0 0 0 0 0 0 0 0 0 0 168 255 255 255 255 255 255 64 0 0 0 0 0 0 0 0 0 0 0 117 255 255 255 255 255 255 115 0 0 0 0 0 0 0 0 0 0 0 66 255 255 255 255 255 255 166 0 0 0 0 0 0 0 0 0 0 0 19 251 255 255 255 255 255 255 255 255 255 255 255 255 
255 255 255 255 255 255 255 255 255 255 255 255 221 0 0 0 0 0 0 0 0 0 0 0 0 120 255 255 255 255 255 255 16 0 0 0 0 0 0 0 0 0 0 0 69 255 255 255 255 255 255 67 0 0 0 0 0 0 0 0 0 0 0 18 255 255 255 255 255 255 118 0 0 0 0 0 0 0 0 0 0 0 0 222 255 255 255 255 255 170 0 0 0 0 0 0 0 0 0 0 0 0 171 255 255 255 255 255 221 0 0 0 0 0 0 0 0 0 0 0 0 120 255 255 255 255 255 255 16 0 0 0 0 0 0 0 0 0 0 0 69 255 255 255 255 255 255 67 0 0 0 0 0 0 0 0 0 0 0 18 255 255 255 255 255 255 118 0 0 0 0 0 0 0 0 0 0 0 0 222 255 255 255 255 255 255 255 255 255 255 255 255 
255 255 255 255 255 255 255 255 255 255 255 255 213 0 0 0 0 0 0 0 0 0 0 0 0 111 255 255 255 255 255 255 8 0 0 0 0 0 0 0 0 0 0 0 60 255 255 255 255 255 255 59 0 0 0 0 0 0 0 0 0 0 0 9 255 255 255 255 255 255 110 0 0 0 0 0 0 0 0 0 0 0 0 213 255 255 255 255 255 162 0 0 0 0 0 0 0 0 0 0 0 0 162 255 255 255 255 255 213 0 0 0 0 0 0 0 0 0 0 0 0 111 255 255 255 255 255 255 8 0 0 0 0 0 0 0 0 0 0 0 60 255 255 255 255 255 255 59 0 0 0 0 0 0 0 0 0 0 0 9 255 255 255 255 255 255 110 0 0 0 0 0 0 0 0 0 0 0 0 213 255 255 255 255 255 255 255 255 255 255 255 255 
255 255 255 255 255 255 255 255 255 255 255 255 241 3 0 0 0 0 0 0 0 0 0 0 0 143 255 255 255 255 255 255 40 0 0 0 0 0 0 0 0 0 0 0 92 255 255 255 255 255 255 90 0 0 0 0 0 0 0 0 0 0 0 41 255 255 255 255 255 255 141 0 0 0 0 0 0 0 0 0 0 0 4 242 255 255 255 255 255 193 0 0 0 0 0 0 0 0 0 0 0 0 195 255 255 255 255 255 241 3 0 0 0 0 0 0 0 0 0 0 0 143 255 255 255 255 255 255 40 0 0 0 0 0 0 0 0 0 0 0 92 255 255 255 255 255 255 90 0 0 0 0 0 0 0 0 0 0 0 41 255 255 255 255 255 255 141 0 0 0 0 0 0 0 0 0 0 0 4 242 255 255 255 255 255 255 255 255 255 255 255 255 
255 255 255 255 255 255 255 255 255 255 255 255 255 65 0 0 0 0 0 0 0 0 0 0 1 218 255 255 255 255 255 255 115 0 0 0 0 0 0 0 0 0 0 0 168 255 255 255 255 255 255 166 0 0 0 0 0 0 0 0 0 0 0 117 255 255 255 255 255 255 216 1 0 0 0 0 0 0 0 0 0 0 67 255 255 255 255 255 255 250 19 0 0 0 0 0 0 0 0 0 0 20 250 255 255 255 255 255 255 65 0 0 0 0 0 0 0 0 0 0 1 218 255 255 255 255 255 255 115 0 0 0 0 0 0 0 0 0 0 0 168 255 255 255 255 255 255 166 0 0 0 0 0 0 0 0 0 0 0 117 255 255 255 255 255 255 216 1 0 0 0 0 0 0 0 0 0 0 67 255 255 255 255 255 255 255 255 255 255 255 255 255 
255 255 255 255 255 255 255 255 255 255 255 255 255 190 1 0 0 0 0 0 0 0 0 0 91 255 255 255 255 255 255 255 229 13 0 0 0 0 0 0 0 0 0 44 252 255 255 255 255 255 255 251 42 0 0 0 0 0 0 0 0 0 14 231 255 255 255 255 255 255 255 89 0 0 0 0 0 0 0 0 0 1 193 255 255 255 255 255 255 255 140 0 0 0 0 0 0 0 0 0 0 143 255 255 255 255 255 255 255 190 1 0 0 0 0 0 0 0 0 0 91 255 255 255 255 255 255 255 229 13 0 0 0 0 0 0 0 0 0 44 252 255 255 255 255 255 255 251 42 0 0 0 0 0 0 0 0 0 14 231 255 255 255 255 255 255 255 89 0 0 0 0 0 0 0 0 0 1 193 255 255 255 255 255 255 255 255 255 255 255 255 255 
255 255 255 255 255 255 255 255 255 255 255 255 255 255 128 0 0 0 0 0 0 0 0 43 239 255 255 255 255 255 255 255 255 175 4 0 0 0 0 0 0 0 18 214 255 255 255 255 255 255 255 255 212 18 0 0 0 0 0 0 0 5 176 255 255 255 255 255 255 255 255 239 42 0 0 0 0 0 0 0 0 130 255 255 255 255 255 255 255 255 253 80 0 0 0 0 0 0 0 0 82 253 255 255 255 255 255 255 255 255 128 0 0 0 0 0 0 0 0 43 239 255 255 255 255 255 255 255 255 175 4 0 0 0 0 0 0 0 18 214 255 255 255 255 255 255 255 255 212 18 0 0 0 0 0 0 0 5 176 255 255 255 255 255 255 255 255 239 42 0 0 0 0 0 0 0 0 130 255 255 255 255 255 255 255 255 255 255 255 255 255 255 
255 255 255 255 255 255 255 255 255 255 255 255 255 255 255 157 20 0 0 0 0 1 91 240 255 255 255 255 255 255 255 255 255 255 190 37 0 0 0 0 0 62 219 255 255 255 255 255 255 255 255 255 255 218 60 0 0 0 0 0 38 192 255 255 255 255 255 255 255 255 255 255 239 89 1 0 0 0 0 20 159 255 255 255 255 255 255 255 255 255 255 251 122 8 0 0 0 0 8 124 252 255 255 255 255 255 255 255 255 255 255 157 20 0 0 0 0 1 91 240 255 255 255 255 255 255 255 255 255 255 190 37 0 0 0 0 0 62 219 255 255 255 255 255 255 255 255 255 255 218 60 0 0 0 0 0 38 192 255 255 255 255 255 255 255 255 255 255 239 89 1 0 0 0 0 20 159 255 255 255 255 255 255 255 255 255 255 255 255 255 255 255 
255 255 255 255 255 255 255 255 255 255 255 255 255 255 255 255 242 168 120 110 143 218 255 255 255 255 255 255 255 255 255 255 255 255 255 250 184 126 108 133 201 255 255 255 255 255 255 255 255 255 255 255 255 255 255 200 133 108 126 185 251 255 255 255 255 255 255 255 255 255 255 255 255 255 217 142 110 120 169 243 255 255 255 255 255 255 255 255 255 255 255 255 255 231 155 113 114 156 232 255 255 255 255 255 255 255 255 255 255 255 255 255 242 168 120 110 143 218 255 255 255 255 255 255 255 255 255 255 255 255 255 250 184 126 108 133 201 255 255 255 255 255 255 255 255 255 255 255 255 255 255 200 133 108 126 185 251 255 255 255 255 255 255 255 255 255 255 255 255 255 217 142 110 120 169 243 255 255 255 255 255 255 255 255 255 255 255 255 255 255 255 255 
255 255 255 255 255 255 255 255 255 255 255 255 255 255 255 255 255 255 255 255 255 255 255 255 255 255 255 255 255 255 255 255 255 255 255 255 255 255 255 255 255 255 255 255 255 255 255 255 255 255 255 255 255 255 255 255 255 255 255 255 255 255 255 255 255 255 255 255 255 255 255 255 255 255 255 255 255 255 255 255 255 255 255 255 255 255 255 255 255 255 255 255 255 255 255 255 255 255 255 255 255 255 255 255 255 255 255 255 255 255 255 255 255 255 255 255 255 255 255 255 255 255 255 255 255 255 255 255 255 255 255 255 255 255 255 255 255 255 255 255 255 255 255 255 255 255 255 255 255 255 255 255 255 255 255 255 255 255 255 255 255 255 255 255 255 255 255 255 255 255 255 255 255 255 255 255 255 255 255 255 255 255 255 255 255 255 255 255 255 255 255 255 
255 255 255 255 255 255 255 255 255 255 255 255 255 255 255 255 255 255 255 255 255 255 255 255 255 255 255 255 255 255 255 255 255 255 255 255 255 255 255 255 255 255 255 255 255 255 255 255 255 255 255 255 255 255 255 255 255 255 255 255 255 255 255 255 255 255 255 255 255 255 255 255 255 255 255 255 255 255 255 255 255 255 255 255 255 255 255 255 255 255 255 255 255 255 255 255 255 255 255 255 255 255 255 255 255 255 255 255 255 255 255 255 255 255 255 255 255 255 255 255 255 255 255 255 255 255 255 255 255 255 255 255 255 255 255 255 255 255 255 255 255 255 255 255 255 255 255 255 255 255 255 255 255 255 255 255 255 255 255 255 255 255 255 255 255 255 255 255 255 255 255 255 255 255 255 255 255 255 255 255 255 255 255 255 255 255 255 255 255 255 255 255 
255 255 255 255 255 255 255 255 255 255 255 255 255 255 255 255 255 255 255 255 255 255 255 255 255 255 255 255 255 255 255 255 255 255 255 255 255 255 255 255 255 255 255 255 255 255 255 255 255 255 255 255 255 255 255 255 255 255 255 255 255 255 255 255 255 255 255 255 255 255 255 255 255 255 255 255 255 255 255 255 255 255 255 255 255 255 255 255 255 255 255 255 255 255 255 255 255 255 255 255 255 255 255 255 255 255 255 255 255 255 255 255 255 255 255 255 255 255 255 255 255 255 255 255 255 255 255 255 255 255 255 255 255 255 255 255 255 255 255 255 255 255 255 255 255 255 255 255 255 255 255 255 255 255 255 255 255 255 255 255 255 255 255 255 255 255 255 255 255 255 255 255 255 255 255 255 255 255 255 255 255 255 255 255 255 255 255 255 255 255 255 255 
255 255 255 255 255 255 255 255 255 255 255 255 255 255 255 255 255 255 255 255 255 255 255 255 255 255 255 255 255 255 255 255 255 255 255 255 255 255 255 255 255 255 255 255 255 255 255 255 255 255 255 255 255 255 255 255 255 255 255 255 255 255 255 255 255 255 255 255 255 255 255 255 255 255 255 255 255 255 255 255 255 255 255 255 255 255 255 255 255 255 255 255 255 255 255 255 255 255 255 255 255 255 255 255 255 255 255 255 255 255 255 255 255 255 255 255 255 255 255 255 255 255 255 255 255 255 255 255 255 255 255 255 255 255 255 255 255 255 255 255 255 255 255 255 255 255 255 255 255 255 255 255 255 255 255 255 255 255 255 255 255 255 255 255 255 255 255 255 255 255 255 255 255 255 255 255 255 255 255 255 255 255 255 255 255 255 255 255 255 255 255 255 
255 255 255 255 255 255 255 255 255 255 255 255 255 255 255 255 255 255 255 255 255 255 255 255 255 255 255 255 255 255 255 255 255 255 255 255 255 255 255 255 255 255 255 255 255 255 255 255 255 255 255 255 255 255 255 255 255 255 255 255 255 255 255 255 255 255 255 255 255 255 255 255 255 255 255 255 255 255 255 255 255 255 255 255 255 255 255 255 255 255 255 255 255 255 255 255 255 255 255 255 255 255 255 255 255 255 255 255 255 255 255 255 255 255 255 255 255 255 255 255 255 255 255 255 255 255 255 255 255 255 255 255 255 255 255 255 255 255 255 255 255 255 255 255 255 255 255 255 255 255 255 255 255 255 255 255 255 255 255 255 255 255 255 255 255 255 255 255 255 255 255 255 255 255 255 255 255 255 255 255 255 255 255 255 255 255 255 255 255 255 255 255 
255 255 255 255 255 255 255 255 255 255 255 255 255 255 255 255 255 255 255 255 255 255 255 255 255 255 255 255 255 255 255 255 255 255 255 255 255 255 255 255 255 255 255 255 255 255 255 255 255 255 255 255 255 255 255 255 255 255 255 255 255 255 255 255 255 255 255 255 255 255 255 255 255 255 255 255 255 255 255 255 255 255 255 255 255 255 255 255 255 255 255 255 255 255 255 255 255 255 255 255 255 255 255 255 255 255 255 255 255 255 255 255 255 255 255 255 255 255 255 255 255 255 255 255 255 255 255 255 255 255 255 255 255 255 255 255 255 255 255 255 255 255 255 255 255 255 255 255 255 255 255 255 255 255 255 255 255 255 255 255 255 255 255 255 255 255 255 255 255 255 255 255 255 255 255 255 255 255 255 255 255 255 255 255 255 255 255 255 255 255 255 255 
